<?xml version="1.0" encoding="UTF-8" standalone="no"?>
<svg
   xmlns:dc="http://purl.org/dc/elements/1.1/"
   xmlns:cc="http://creativecommons.org/ns#"
   xmlns:rdf="http://www.w3.org/1999/02/22-rdf-syntax-ns#"
   xmlns:svg="http://www.w3.org/2000/svg"
   xmlns="http://www.w3.org/2000/svg"
   xmlns:xlink="http://www.w3.org/1999/xlink"
   xmlns:sodipodi="http://sodipodi.sourceforge.net/DTD/sodipodi-0.dtd"
   xmlns:inkscape="http://www.inkscape.org/namespaces/inkscape"
   width="140px"
   height="60px"
   id="svg7576"
   version="1.1"
   inkscape:version="0.48.4 r9939"
   sodipodi:docname="bitslots_logo.svg">
  <defs
     id="defs3">
    <linearGradient
       inkscape:collect="always"
       xlink:href="#skyGradient"
       id="linearGradient3028"
       x1="45.816487"
       y1="42.243828"
       gradientTransform="scale(0.70061933,1.4273086)"
       x2="45.816487"
       y2="3.2719108"
       gradientUnits="userSpaceOnUse" />
    <linearGradient
       inkscape:collect="always"
       xlink:href="#skyGradient"
       id="linearGradient3030"
       x1="79.100192"
       y1="34.896645"
       gradientTransform="scale(0.57876535,1.727816)"
       x2="79.100192"
       y2="2.7028495"
       gradientUnits="userSpaceOnUse" />
    <linearGradient
       inkscape:collect="always"
       xlink:href="#skyGradient"
       id="linearGradient3032"
       x1="101.26044"
       y1="39.512669"
       gradientTransform="scale(0.6553227,1.5259658)"
       x2="101.26044"
       y2="3.0603743"
       gradientUnits="userSpaceOnUse" />
    <linearGradient
       inkscape:collect="always"
       xlink:href="#skyGradient"
       id="linearGradient3034"
       x1="122.5869"
       y1="41.011739"
       gradientTransform="scale(0.67521691,1.4810056)"
       x2="122.5869"
       y2="2.8537312"
       gradientUnits="userSpaceOnUse" />
    <linearGradient
       inkscape:collect="always"
       xlink:href="#skyGradient"
       id="linearGradient3036"
       x1="161.23564"
       y1="34.896645"
       gradientTransform="scale(0.57876535,1.727816)"
       x2="161.23564"
       y2="2.7028495"
       gradientUnits="userSpaceOnUse" />
    <linearGradient
       inkscape:collect="always"
       xlink:href="#skyGradient"
       id="linearGradient3038"
       x1="175.51242"
       y1="39.310217"
       gradientTransform="scale(0.64720306,1.5451101)"
       x2="175.51242"
       y2="2.7353337"
       gradientUnits="userSpaceOnUse" />
    <linearGradient
       inkscape:collect="always"
       xlink:href="#skyGradient"
       id="linearGradient3040"
       x1="204.36835"
       y1="39.512672"
       gradientTransform="scale(0.65532276,1.5259656)"
       x2="204.36835"
       y2="3.0603746"
       gradientUnits="userSpaceOnUse" />
    <linearGradient
       inkscape:collect="always"
       xlink:href="#skyGradient"
       id="linearGradient3042"
       x1="222.65692"
       y1="41.011737"
       gradientTransform="scale(0.67521688,1.4810056)"
       x2="222.65692"
       y2="2.8537311"
       gradientUnits="userSpaceOnUse" />
  </defs>
  <sodipodi:namedview
     id="base"
     pagecolor="#ffffff"
     bordercolor="#666666"
     borderopacity="1.0"
     inkscape:pageopacity="0.0"
     inkscape:pageshadow="2"
     inkscape:zoom="2.4"
     inkscape:cx="187.59309"
     inkscape:cy="28.475228"
     inkscape:document-units="mm"
     inkscape:current-layer="layer1"
     showgrid="true"
     inkscape:window-width="1920"
     inkscape:window-height="979"
     inkscape:window-x="0"
     inkscape:window-y="27"
     inkscape:window-maximized="1">
    <inkscape:grid
       type="xygrid"
       id="grid7736" />
  </sodipodi:namedview>
  <linearGradient
     id="skyGradient"
     x1="100%"
     y1="100%">
    <stop
       offset="0%"
       stop-color="pink"
       stop-opacity=".5"
       id="stop7">
      <animate
         attributeName="stop-color"
         values="pink;purple;pink;pink;red;orange;red;pink;purple;pink;orange"
         dur="14s"
         repeatCount="indefinite"
         id="animate9" />
    </stop>
    <stop
       offset="100%"
       stop-color="pink"
       stop-opacity=".5"
       id="stop11">
      <animate
         attributeName="stop-color"
         values="pink;pink;pink;orange;orange;pink;orange;pink;pink;orange"
         dur="14s"
         repeatCount="indefinite"
         id="animate13" />
      <animate
         attributeName="offset"
         values=".95;.80;.60;.40;.20;0;.20;.40;.60;.80;.95"
         dur="14s"
         repeatCount="indefinite"
         id="animate15" />
    </stop>
  </linearGradient>
  <metadata
     id="metadata7580">
    <rdf:RDF>
      <cc:Work
         rdf:about="">
        <dc:format>image/svg+xml</dc:format>
        <dc:type
           rdf:resource="http://purl.org/dc/dcmitype/StillImage" />
        <dc:title />
      </cc:Work>
    </rdf:RDF>
  </metadata>
  <g
     inkscape:label="Layer 1"
     inkscape:groupmode="layer"
     id="layer1">
    <g
       transform="matrix(0.74704921,0,0,0.65822172,12.235452,10.362578)"
       style="font-size:69.88951111px;font-style:italic;font-variant:normal;font-weight:bold;font-stretch:normal;text-align:center;writing-mode:lr-tb;text-anchor:middle;fill:#f86ccc;fill-opacity:1;stroke:none;display:inline;font-family:Gill Sans Ultra Bold;-inkscape-font-specification:Gill Sans Ultra Bold"
       id="text6188">
      <path
         d="m 15.920429,4.6700264 4.743477,0 c 4.299821,5.56e-5 7.439386,1.3537085 9.418704,4.0609628 2.002014,2.6846068 2.513899,6.4384348 1.535658,11.2614938 -1.0238,5.096145 -3.469475,9.100228 -7.337034,12.012259 1.547011,1.296805 2.593532,2.752835 3.139568,4.368095 0.796242,2.297821 0.875869,5.062003 0.23888,8.292554 -0.659788,3.207832 -1.842812,6.063016 -3.549076,8.56556 -1.274048,1.865546 -3.116836,3.514955 -5.52837,4.948232 -2.411565,1.410532 -5.107496,2.115796 -8.0878,2.115796 l -5.698998,0 11.124991,-55.6249526 m 5.903752,7.9854226 -3.105442,15.595462 c 2.70729,-1.137491 4.459076,-3.719669 5.255364,-7.746542 0.477739,-2.41151 0.409487,-4.390801 -0.204755,-5.937879 -0.45503,-1.091976 -1.103418,-1.72899 -1.945167,-1.911041 M 17.080704,36.338711 13.90701,52.309556 c 1.319516,-0.38675 2.525291,-1.228517 3.617328,-2.525304 1.114759,-1.319517 1.888275,-3.037177 2.32055,-5.152987 0.363991,-1.842772 0.29574,-3.503556 -0.204754,-4.982357 -0.477777,-1.47876 -1.330919,-2.582158 -2.55943,-3.310197"
         id="path3005"
         style="fill:url(#linearGradient3028)"
         inkscape:connector-curvature="0" />
      <path
         d="m 38.272787,4.6700264 7.507663,0 -11.124991,55.6249526 -7.507662,0 11.12499,-55.6249526"
         id="path3007"
         style="fill:url(#linearGradient3030)"
         inkscape:connector-curvature="0" />
      <path
         d="m 48.305753,4.6700264 18.052515,0 -1.467407,7.2687826 -5.255363,0 -9.657584,48.35617 -7.507662,0 9.657583,-48.35617 -5.289489,0 1.467407,-7.2687826"
         id="path3009"
         style="fill:url(#linearGradient3032)"
         inkscape:connector-curvature="0" />
      <path
         d="m 58.509349,52.207179 c 1.069269,0.500519 2.093041,0.750774 3.071316,0.750766 1.342272,8e-6 2.491171,-0.432251 3.4467,-1.296778 0.95551,-0.864509 1.603899,-2.138535 1.945167,-3.822082 0.272995,-1.342265 0.386747,-2.627667 0.341257,-3.856209 -0.09101,-2.434283 -0.511897,-5.585223 -1.262652,-9.452829 -0.750776,-3.890304 -1.171659,-7.416627 -1.262652,-10.578979 -0.04551,-1.79725 0.147869,-3.799292 0.580137,-6.00613 0.955511,-4.777556 2.582169,-8.2583775 4.879981,-10.4424754 2.297783,-2.1839922 4.936837,-3.2760147 7.917171,-3.2760708 1.387756,5.61e-5 2.923413,0.2844369 4.606974,0.8531435 L 81.271216,12.48482 c -0.932794,-0.500462 -1.831438,-0.750717 -2.695933,-0.750766 -1.274049,4.9e-5 -2.468449,0.523309 -3.583203,1.569784 -1.092041,1.046569 -1.831432,2.57085 -2.218173,4.572849 -0.273022,1.31957 -0.386774,2.616346 -0.341257,3.890334 0.09099,2.388838 0.454993,5.357774 1.092023,8.906818 0.796249,4.436371 1.228508,8.406328 1.296779,11.909882 0.02273,1.774554 -0.170648,3.674219 -0.580138,5.698998 -0.796285,4.004095 -2.388817,7.086784 -4.777603,9.248075 -2.366063,2.138547 -5.005117,3.207819 -7.917171,3.20782 -1.274032,-10e-7 -2.786938,-0.295757 -4.538724,-0.887269 l 1.501533,-7.644166"
         id="path3011"
         style="fill:url(#linearGradient3034)"
         inkscape:connector-curvature="0" />
      <path
         d="m 85.80994,4.6700264 7.507662,0 -9.657584,48.2196676 4.368095,0 -1.467407,7.405285 -11.875757,0 L 85.80994,4.6700264"
         id="path3013"
         style="fill:url(#linearGradient3036)"
         inkscape:connector-curvature="0" />
      <path
         d="m 91.577191,33.199143 c 2.138538,-10.738194 4.845843,-18.53023 8.121926,-23.3761302 2.525283,-3.7310264 5.107463,-5.5965649 7.746543,-5.596621 1.2285,5.61e-5 2.34328,0.4550655 3.34432,1.3650295 1.001,0.9100735 1.76314,2.5481073 2.28643,4.9141067 0.52323,2.343348 0.64836,5.494288 0.37538,9.452829 -0.25028,3.935871 -0.83042,8.144708 -1.74041,12.626523 -2.25233,11.329761 -5.22126,19.337926 -8.90682,24.024519 -2.18406,2.752811 -4.368109,4.129214 -6.552143,4.129215 -3.071324,-10e-7 -5.005114,-2.184046 -5.801375,-6.552142 -0.978276,-5.391855 -0.602893,-12.387624 1.126149,-20.987329 M 105.70525,12.791952 c -0.77354,1.001068 -1.4333,2.104466 -1.9793,3.310197 -0.52328,1.183068 -1.17166,3.321612 -1.94516,6.415638 -1.16029,4.868638 -2.024812,8.702093 -2.593559,11.500374 -1.25129,6.301906 -1.911054,10.840625 -1.979293,13.616169 -0.02276,1.77455 0.181991,3.332957 0.614263,4.675226 0.910006,-1.319519 1.626646,-2.58217 2.149922,-3.787956 0.523247,-1.228514 1.137507,-3.378433 1.842787,-6.449765 1.29676,-5.687599 2.20678,-9.83956 2.73006,-12.455894 1.16026,-5.84684 1.75177,-10.032926 1.77454,-12.558272 0.0227,-1.683491 -0.18203,-3.105396 -0.61426,-4.265717"
         id="path3015"
         style="fill:url(#linearGradient3038)"
         inkscape:connector-curvature="0" />
      <path
         d="m 115.87471,4.6700264 18.05252,0 -1.46741,7.2687826 -5.25536,0 -9.65758,48.35617 -7.50767,0 9.65759,-48.35617 -5.28949,0 1.4674,-7.2687826"
         id="path3017"
         style="fill:url(#linearGradient3040)"
         inkscape:connector-curvature="0" />
      <path
         d="m 126.07831,52.207179 c 1.06927,0.500519 2.09304,0.750774 3.07132,0.750766 1.34227,8e-6 2.49117,-0.432251 3.4467,-1.296778 0.95551,-0.864509 1.6039,-2.138535 1.94516,-3.822082 0.273,-1.342265 0.38675,-2.627667 0.34126,-3.856209 -0.091,-2.434283 -0.5119,-5.585223 -1.26265,-9.452829 -0.75078,-3.890304 -1.17166,-7.416627 -1.26265,-10.578979 -0.0455,-1.79725 0.14787,-3.799292 0.58013,-6.00613 0.95551,-4.777556 2.58217,-8.2583775 4.87998,-10.4424754 2.29779,-2.1839922 4.93684,-3.2760147 7.91718,-3.2760708 1.38775,5.61e-5 2.92341,0.2844369 4.60697,0.8531435 l -1.50153,7.4052847 c -0.9328,-0.500462 -1.83144,-0.750717 -2.69594,-0.750766 -1.27404,4.9e-5 -2.46844,0.523309 -3.5832,1.569784 -1.09204,1.046569 -1.83143,2.57085 -2.21817,4.572849 -0.27302,1.31957 -0.38678,2.616346 -0.34126,3.890334 0.091,2.388838 0.45499,5.357774 1.09203,8.906818 0.79624,4.436371 1.2285,8.406328 1.29677,11.909882 0.0227,1.774554 -0.17064,3.674219 -0.58013,5.698998 -0.79629,4.004095 -2.38882,7.086784 -4.77761,9.248075 -2.36606,2.138547 -5.00511,3.207819 -7.91717,3.20782 -1.27403,-10e-7 -2.78694,-0.295757 -4.53872,-0.887269 l 1.50153,-7.644166"
         id="path3019"
         style="fill:url(#linearGradient3042)"
         inkscape:connector-curvature="0" />
    </g>
    <g
       transform="matrix(0.74704921,0,0,0.65822172,12.235452,10.362578)"
       style="font-size:69.88951111px;font-style:italic;font-variant:normal;font-weight:bold;font-stretch:normal;text-align:center;line-height:125%;writing-mode:lr-tb;text-anchor:middle;opacity:0.19397996;fill:#f86ccc;fill-opacity:1;stroke:#c229bc;stroke-width:5.47267818;stroke-opacity:1;display:inline;font-family:Gill Sans Ultra Bold;-inkscape-font-specification:Gill Sans Ultra Bold"
       id="text6188-2">
      <path
         d="m 16.501094,5.1834541 4.743478,0 c 4.299821,5.57e-5 7.439385,1.3537086 9.418703,4.0609628 2.002014,2.6846071 2.5139,6.4384341 1.535659,11.2614931 -1.0238,5.096146 -3.469476,9.100228 -7.337034,12.01226 1.54701,1.296805 2.593532,2.752835 3.139568,4.368095 0.796242,2.297821 0.875868,5.062003 0.23888,8.292554 -0.659788,3.207832 -1.842813,6.063016 -3.549077,8.56556 -1.274047,1.865546 -3.116835,3.514955 -5.528369,4.948232 -2.411566,1.410531 -5.107496,2.115796 -8.0878,2.115796 l -5.6989984,0 L 16.501094,5.1834541 m 5.903753,7.9854229 -3.105442,15.595462 c 2.70729,-1.137491 4.459076,-3.71967 5.255363,-7.746542 0.477739,-2.41151 0.409488,-4.390801 -0.204754,-5.937879 -0.45503,-1.091977 -1.103419,-1.72899 -1.945167,-1.911041 m -4.743478,23.683262 -3.173693,15.970845 c 1.319516,-0.38675 2.525291,-1.228517 3.617328,-2.525304 1.114758,-1.319517 1.888274,-3.037178 2.32055,-5.152987 0.363991,-1.842772 0.295739,-3.503556 -0.204754,-4.982358 -0.477777,-1.478759 -1.33092,-2.582157 -2.559431,-3.310196"
         style="line-height:125%;fill:#f86ccc;stroke:#c229bc;font-family:Gill Sans MT Ext Condensed Bold;-inkscape-font-specification:Gill Sans MT Ext Condensed Bold"
         id="path2988"
         inkscape:connector-curvature="0" />
      <path
         d="m 38.853453,5.1834541 7.507662,0 -11.12499,55.6249529 -7.507663,0 11.124991,-55.6249529"
         style="line-height:125%;fill:#f86ccc;stroke:#c229bc;font-family:Gill Sans MT Ext Condensed Bold;-inkscape-font-specification:Gill Sans MT Ext Condensed Bold"
         id="path2990"
         inkscape:connector-curvature="0" />
      <path
         d="m 48.886418,5.1834541 18.052516,0 -1.467407,7.2687819 -5.255364,0 -9.657584,48.356171 -7.507662,0 9.657584,-48.356171 -5.289489,0 1.467406,-7.2687819"
         style="line-height:125%;fill:#f86ccc;stroke:#c229bc;font-family:Gill Sans MT Ext Condensed Bold;-inkscape-font-specification:Gill Sans MT Ext Condensed Bold"
         id="path2992"
         inkscape:connector-curvature="0" />
      <path
         d="m 59.090014,52.720607 c 1.06927,0.500518 2.093041,0.750774 3.071317,0.750766 1.342272,8e-6 2.491171,-0.432251 3.446699,-1.296778 0.955511,-0.864509 1.603899,-2.138535 1.945167,-3.822082 0.272995,-1.342266 0.386747,-2.627667 0.341258,-3.856209 -0.09101,-2.434284 -0.511897,-5.585224 -1.262653,-9.452829 -0.750775,-3.890305 -1.171659,-7.416627 -1.262652,-10.578979 -0.04551,-1.797251 0.147869,-3.799292 0.580138,-6.00613 0.95551,-4.777556 2.582169,-8.258378 4.87998,-10.4424756 2.297783,-2.1839923 4.936838,-3.2760148 7.917171,-3.2760709 1.387757,5.61e-5 2.923414,0.284437 4.606975,0.8531435 l -1.501532,7.405285 c -0.932795,-0.500462 -1.831438,-0.750718 -2.695934,-0.750766 -1.274049,4.8e-5 -2.468448,0.523309 -3.583202,1.569784 -1.092042,1.046568 -1.831432,2.57085 -2.218173,4.572849 -0.273023,1.319569 -0.386775,2.616346 -0.341258,3.890334 0.09099,2.388838 0.454993,5.357774 1.092024,8.906817 0.796249,4.436371 1.228508,8.406328 1.296778,11.909883 0.02273,1.774554 -0.170647,3.674218 -0.580137,5.698998 -0.796285,4.004095 -2.388818,7.086783 -4.777604,9.248075 -2.366062,2.138547 -5.005116,3.207819 -7.917171,3.207819 -1.274032,0 -2.786938,-0.295756 -4.538723,-0.887269 l 1.501532,-7.644165"
         style="line-height:125%;fill:#f86ccc;stroke:#c229bc;font-family:Gill Sans MT Ext Condensed Bold;-inkscape-font-specification:Gill Sans MT Ext Condensed Bold"
         id="path2994"
         inkscape:connector-curvature="0" />
      <path
         d="m 86.390605,5.1834541 7.507663,0 -9.657584,48.2196679 4.368094,0 -1.467406,7.405285 -11.875757,0 11.12499,-55.6249529"
         style="line-height:125%;fill:#f86ccc;stroke:#c229bc;font-family:Gill Sans MT Ext Condensed Bold;-inkscape-font-specification:Gill Sans MT Ext Condensed Bold"
         id="path2996"
         inkscape:connector-curvature="0" />
      <path
         d="m 92.157857,33.712571 c 2.138537,-10.738194 4.845843,-18.53023 8.121923,-23.37613 2.52529,-3.7310269 5.10747,-5.5965654 7.74654,-5.5966215 1.22851,5.61e-5 2.34328,0.4550655 3.34433,1.3650296 1.00099,0.9100734 1.76313,2.5481072 2.28642,4.9141059 0.52323,2.343348 0.64836,5.494288 0.37538,9.45283 -0.25028,3.935871 -0.83042,8.144708 -1.74041,12.626523 -2.25232,11.329761 -5.22126,19.337926 -8.90682,24.024519 -2.18406,2.752811 -4.368103,4.129214 -6.552137,4.129214 -3.071325,0 -5.005115,-2.184045 -5.801376,-6.552141 -0.978275,-5.391855 -0.602893,-12.387625 1.12615,-20.987329 M 106.28591,13.30538 c -0.77353,1.001068 -1.4333,2.104466 -1.97929,3.310196 -0.52328,1.183069 -1.17167,3.321613 -1.94517,6.415639 -1.16029,4.868638 -2.02481,8.702092 -2.593554,11.500374 -1.25129,6.301906 -1.911053,10.840625 -1.979292,13.616169 -0.02276,1.774549 0.181991,3.332956 0.614263,4.675226 0.910006,-1.319519 1.626643,-2.58217 2.149923,-3.787957 0.52324,-1.228513 1.13751,-3.378433 1.84279,-6.449764 1.29676,-5.687599 2.20678,-9.83956 2.73006,-12.455894 1.16025,-5.84684 1.75176,-10.032927 1.77454,-12.558272 0.0227,-1.683492 -0.18203,-3.105396 -0.61427,-4.265717"
         style="line-height:125%;fill:#f86ccc;stroke:#c229bc;font-family:Gill Sans MT Ext Condensed Bold;-inkscape-font-specification:Gill Sans MT Ext Condensed Bold"
         id="path2998"
         inkscape:connector-curvature="0" />
      <path
         d="m 116.45538,5.1834541 18.05252,0 -1.46741,7.2687819 -5.25536,0 -9.65759,48.356171 -7.50766,0 9.65758,-48.356171 -5.28949,0 1.46741,-7.2687819"
         style="line-height:125%;fill:#f86ccc;stroke:#c229bc;font-family:Gill Sans MT Ext Condensed Bold;-inkscape-font-specification:Gill Sans MT Ext Condensed Bold"
         id="path3000"
         inkscape:connector-curvature="0" />
      <path
         d="m 126.65898,52.720607 c 1.06927,0.500518 2.09304,0.750774 3.07131,0.750766 1.34228,8e-6 2.49117,-0.432251 3.4467,-1.296778 0.95551,-0.864509 1.6039,-2.138535 1.94517,-3.822082 0.27299,-1.342266 0.38675,-2.627667 0.34126,-3.856209 -0.091,-2.434284 -0.5119,-5.585224 -1.26266,-9.452829 -0.75077,-3.890305 -1.17165,-7.416627 -1.26265,-10.578979 -0.0455,-1.797251 0.14787,-3.799292 0.58014,-6.00613 0.95551,-4.777556 2.58217,-8.258378 4.87998,-10.4424756 2.29778,-2.1839923 4.93684,-3.2760148 7.91717,-3.2760709 1.38776,5.61e-5 2.92341,0.284437 4.60698,0.8531435 l -1.50154,7.405285 c -0.93279,-0.500462 -1.83143,-0.750718 -2.69593,-0.750766 -1.27405,4.8e-5 -2.46845,0.523309 -3.5832,1.569784 -1.09204,1.046568 -1.83143,2.57085 -2.21818,4.572849 -0.27302,1.319569 -0.38677,2.616346 -0.34125,3.890334 0.091,2.388838 0.45499,5.357774 1.09202,8.906817 0.79625,4.436371 1.22851,8.406328 1.29678,11.909883 0.0227,1.774554 -0.17065,3.674218 -0.58014,5.698998 -0.79628,4.004095 -2.38882,7.086783 -4.7776,9.248075 -2.36606,2.138547 -5.00512,3.207819 -7.91717,3.207819 -1.27403,0 -2.78694,-0.295756 -4.53873,-0.887269 l 1.50154,-7.644165"
         style="line-height:125%;fill:#f86ccc;stroke:#c229bc;font-family:Gill Sans MT Ext Condensed Bold;-inkscape-font-specification:Gill Sans MT Ext Condensed Bold"
         id="path3002"
         inkscape:connector-curvature="0" />
    </g>
  </g>
</svg>
