<?xml version="1.0" encoding="UTF-8" standalone="no"?>
<!-- Generator: Adobe Illustrator 18.0.0, SVG Export Plug-In . SVG Version: 6.00 Build 0)  -->

<svg
   xmlns:dc="http://purl.org/dc/elements/1.1/"
   xmlns:cc="http://creativecommons.org/ns#"
   xmlns:rdf="http://www.w3.org/1999/02/22-rdf-syntax-ns#"
   xmlns:svg="http://www.w3.org/2000/svg"
   xmlns="http://www.w3.org/2000/svg"
   xmlns:sodipodi="http://sodipodi.sourceforge.net/DTD/sodipodi-0.dtd"
   xmlns:inkscape="http://www.inkscape.org/namespaces/inkscape"
   version="1.1"
   id="Capa_1"
   x="0px"
   y="0px"
   viewBox="0 0 58.707 58.707"
   style="enable-background:new 0 0 58.707 58.707;"
   xml:space="preserve"
   inkscape:version="0.91 r13725"
   sodipodi:docname="frepstr.svg"><metadata
     id="metadata128"><rdf:RDF><cc:Work
         rdf:about=""><dc:format>image/svg+xml</dc:format><dc:type
           rdf:resource="http://purl.org/dc/dcmitype/StillImage" /></cc:Work></rdf:RDF></metadata><defs
     id="defs126" /><sodipodi:namedview
     pagecolor="#ffffff"
     bordercolor="#666666"
     borderopacity="1"
     objecttolerance="10"
     gridtolerance="10"
     guidetolerance="10"
     inkscape:pageopacity="0"
     inkscape:pageshadow="2"
     inkscape:window-width="1105"
     inkscape:window-height="495"
     id="namedview124"
     showgrid="false"
     inkscape:zoom="10.24"
     inkscape:cx="34.425001"
     inkscape:cy="30.76498"
     inkscape:window-x="435"
     inkscape:window-y="352"
     inkscape:window-maximized="0"
     inkscape:current-layer="Capa_1" /><g
     id="g5420"
     transform="matrix(0.75456619,0,0,0.81687796,6.4907704,5.536083)"><path
       id="path5366"
       d="M 46.324,58 1.565,58 c -1.03,0 -1.779,-0.978 -1.51,-1.973 L 10.221,28.156 C 10.405,27.474 11.024,27 11.731,27 L 56.49,27 C 57.52,27 58,27.984 58,28.973 L 47.834,56.844 C 47.65,57.526 47.031,58 46.324,58 Z"
       style="fill:#efce4a"
       inkscape:connector-curvature="0" /><path
       id="path5368"
       d="M 10.221,28.156 C 10.405,27.474 11.024,27 11.731,27 L 46,27 46,15 31,0 8,0 8,34.245 10.221,28.156 Z"
       style="fill:#f4efdc"
       inkscape:connector-curvature="0" /><g
       id="g5370"><path
         id="path5372"
         d="M 50.268,18 46,18 l 0,9 6,0 0,-7.268 C 52,18.775 51.224,18 50.268,18 Z"
         style="fill:#ebba16"
         inkscape:connector-curvature="0" /><path
         id="path5374"
         d="M 8,11 1.732,11 C 0.776,11 0,11.775 0,12.732 L 0,55.46 c 0.069,0.002 0.138,0.006 0.205,0.01 L 8,34.212 8,11 Z"
         style="fill:#ebba16"
         inkscape:connector-curvature="0" /></g><path
       id="path5376"
       d="m 25,16 -10,0 c -0.552,0 -1,-0.447 -1,-1 0,-0.553 0.448,-1 1,-1 l 10,0 c 0.552,0 1,0.447 1,1 0,0.553 -0.448,1 -1,1 z"
       style="fill:#cec9ae"
       inkscape:connector-curvature="0" /><path
       id="path5378"
       d="M 25,9 15,9 C 14.448,9 14,8.553 14,8 14,7.447 14.448,7 15,7 l 10,0 c 0.552,0 1,0.447 1,1 0,0.553 -0.448,1 -1,1 z"
       style="fill:#cec9ae"
       inkscape:connector-curvature="0" /><path
       id="path5380"
       d="m 39,23 -24,0 c -0.552,0 -1,-0.447 -1,-1 0,-0.553 0.448,-1 1,-1 l 24,0 c 0.552,0 1,0.447 1,1 0,0.553 -0.448,1 -1,1 z"
       style="fill:#9b73ff;fill-opacity:1"
       inkscape:connector-curvature="0" /><polygon
       id="polygon5382"
       points="31,15 46,15 31,0 "
       style="fill:#d1bf86" /><g
       id="g5384" /><g
       id="g5386" /><g
       id="g5388" /><g
       id="g5390" /><g
       id="g5392" /><g
       id="g5394" /><g
       id="g5396" /><g
       id="g5398" /><g
       id="g5400" /><g
       id="g5402" /><g
       id="g5404" /><g
       id="g5406" /><g
       id="g5408" /><g
       id="g5410" /><g
       id="g5412" /></g><g
     id="g94" /><g
     id="g96" /><g
     id="g98" /><g
     id="g100" /><g
     id="g102" /><g
     id="g104" /><g
     id="g106" /><g
     id="g108" /><g
     id="g110" /><g
     id="g112" /><g
     id="g114" /><g
     id="g116" /><g
     id="g118" /><g
     id="g120" /><g
     id="g122" /><g
     id="g4045"
     transform="matrix(0.96093662,0,0,0.96093662,3.5582784,-32.25065)"><g
       id="g3973"><g
         id="g3975"><g
           id="g3979" /></g><g
         id="g3993"><polygon
           id="polygon3995"
           points="36.194,49.222 34.205,56.511 38.852,51.865 36.201,49.214 "
           style="fill:#eddcc7" /><path
           id="path3997"
           d="m 55.451,35.266 -1.247,-1.247 c -0.775,-0.775 -2.032,-0.775 -2.807,0 l -3.582,3.581 2.651,2.651 4.985,-4.985 z"
           style="fill:#d75a4a"
           inkscape:connector-curvature="0" /><rect
           id="rect3999"
           height="16.424"
           width="3.7490001"
           style="fill:#f29c21"
           transform="matrix(0.7071,0.7071,-0.7071,0.7071,44.3228,-17.5395)"
           y="36.521"
           x="41.459" /><polygon
           id="polygon4001"
           points="41.858,54.871 38.852,51.865 34.205,56.511 34.072,57 41.85,54.879 "
           style="fill:#d6c4b1" /><path
           id="path4003"
           d="m 53.472,43.257 3.582,-3.582 c 0.775,-0.775 0.775,-2.032 0,-2.807 l -1.602,-1.602 -4.985,4.985 3.005,3.006 z"
           style="fill:#a34740"
           inkscape:connector-curvature="0" /><rect
           id="rect4005"
           height="16.424"
           width="4.2509999"
           style="fill:#e18c25"
           transform="matrix(-0.7071,-0.7071,0.7071,-0.7071,45.1717,113.8333)"
           y="39.348999"
           x="44.035999" /><path
           id="path4007"
           d="m 33.365,58.707 c -0.256,0 -0.512,-0.098 -0.707,-0.293 -0.391,-0.391 -0.391,-1.023 0,-1.414 l 2.207,-2.207 c 0.391,-0.391 1.023,-0.391 1.414,0 0.391,0.391 0.391,1.023 0,1.414 l -2.207,2.207 c -0.195,0.195 -0.451,0.293 -0.707,0.293 z"
           style="fill:#5e5e5e"
           inkscape:connector-curvature="0" /></g></g><g
       id="g4009" /><g
       id="g4011" /><g
       id="g4013" /><g
       id="g4015" /><g
       id="g4017" /><g
       id="g4019" /><g
       id="g4021" /><g
       id="g4023" /><g
       id="g4025" /><g
       id="g4027" /><g
       id="g4029" /><g
       id="g4031" /><g
       id="g4033" /><g
       id="g4035" /><g
       id="g4037" /></g><g
     id="g5020"
     transform="matrix(0.07923332,0,0,0.07923332,0.74814636,12.256771)"><path
       id="path4970"
       d="m 495.065,450.956 -98.462,-98.462 c 0.788,-3.151 0.788,-6.695 0.788,-10.24 0,-30.326 -24.812,-55.138 -55.138,-55.138 -30.326,0 -55.138,24.812 -55.138,55.138 0,30.326 24.812,55.138 55.138,55.138 3.545,0 7.089,-0.394 10.24,-0.788 l 98.068,98.462 c 12.209,12.209 31.902,12.209 44.111,0 12.602,-12.208 12.602,-31.901 0.393,-44.11 z m 0,0 -98.462,-98.462 c 0.788,-3.151 0.788,-6.695 0.788,-10.24 0,-30.326 -24.812,-55.138 -55.138,-55.138 -30.326,0 -55.138,24.812 -55.138,55.138 0,30.326 24.812,55.138 55.138,55.138 3.545,0 7.089,-0.394 10.24,-0.788 l 98.068,98.462 c 12.209,12.209 31.902,12.209 44.111,0 12.602,-12.208 12.602,-31.901 0.393,-44.11 z"
       style="fill:#b7854e"
       inkscape:connector-curvature="0" /><path
       id="path4972"
       d="m 291.446,321.774 c 11.422,8.665 24.025,18.905 31.508,29.538 10.24,14.178 18.117,28.357 25.994,43.717 l 1.182,2.363 2.363,-0.394 9.846,9.846 -8.271,-14.966 c -8.271,-15.36 -15.754,-29.932 -26.388,-44.505 -8.271,-11.422 -22.055,-22.449 -33.871,-31.508 -0.394,1.971 -1.575,3.94 -2.363,5.909 z m 131.939,128 c -9.058,-18.511 -15.36,-35.052 -21.268,-50.018 -11.422,-29.932 -20.086,-51.594 -40.96,-61.046 -11.028,-4.726 -16.935,-5.514 -20.086,-1.575 -5.12,5.908 1.182,18.117 18.511,44.898 l 37.415,58.289 c 0.394,0.394 0.394,0.788 0.788,0.788 1.182,0.788 2.363,0.788 3.545,0 1.575,-0.788 1.969,-2.757 0.788,-4.332 l -37.415,-58.289 c -5.908,-9.058 -21.268,-33.477 -18.905,-37.415 0,0 1.969,-1.182 12.603,3.545 18.511,8.271 26.388,27.963 37.809,57.502 5.514,14.572 12.209,31.508 21.268,50.412 3.151,6.695 5.514,11.815 7.483,16.542 l 11.028,11.028 c -1.971,-6.698 -5.909,-16.15 -12.604,-30.329 z m 41.747,47.262 c -12.209,-23.237 -24.812,-47.262 -30.326,-61.834 -1.575,-3.938 -2.757,-8.271 -4.332,-12.603 -6.695,-19.692 -14.966,-43.717 -30.326,-66.166 l -3.545,-3.545 0,-1.182 c -10.24,-13.391 -23.237,-25.994 -40.172,-36.234 l -13.785,0 c 53.169,24.812 70.105,74.437 81.92,109.095 1.575,4.726 3.151,8.665 4.332,12.997 5.514,14.966 18.117,39.385 30.326,62.622 0.394,0.394 0.394,0.788 0.788,1.575 2.757,1.182 5.514,1.969 8.665,2.363 l -3.545,-7.088 0,0 z M 331.618,396.605 c 2.363,0.394 5.12,0.788 7.877,0.788 -12.209,-23.237 -25.206,-44.898 -51.2,-62.622 -0.394,2.363 -0.394,4.726 -0.788,7.483 21.268,15.36 33.084,33.871 44.111,54.351 z m 58.684,-81.132 -6.302,0 c 3.545,2.363 6.695,5.12 9.846,7.877 -0.788,-2.757 -1.969,-5.514 -3.544,-7.877 z m 91.372,157.538 c -7.089,-18.905 -9.058,-33.083 -5.514,-40.566 l -4.726,-4.726 c -4.332,7.483 -5.514,21.268 4.332,47.655 3.151,7.877 6.695,16.935 10.634,25.994 1.969,-0.788 3.938,-1.969 5.514,-3.545 -3.545,-7.876 -6.696,-16.147 -10.24,-24.812 z m 22.055,-4.332 c -0.394,-3.938 -1.969,-7.877 -3.938,-11.422 -3.151,7.089 -3.151,18.511 0,31.902 2.363,-3.938 3.938,-8.665 4.332,-12.997 -0.394,-2.757 -0.394,-5.12 -0.394,-7.483 z M 482.855,502.55 C 465.526,464.741 449.772,424.175 438.35,394.242 l -11.028,-11.028 2.757,7.089 c 14.966,38.991 30.326,78.375 46.474,113.822 2.364,-0.394 4.333,-0.787 6.302,-1.575 z"
       style="fill:#be8d54"
       inkscape:connector-curvature="0" /><path
       id="path4974"
       d="m 500.185,488.371 c 6.695,-11.815 5.12,-27.175 -5.12,-37.415 l -98.068,-98.462 c 0.788,-3.151 0.788,-6.695 0.788,-10.24 0,-30.326 -24.812,-55.138 -55.138,-55.138 -12.209,0 -23.237,3.938 -32.689,10.634 -6.695,9.452 -10.634,20.874 -10.634,33.083 0,30.326 24.812,55.138 55.138,55.138 3.545,0 7.089,-0.394 10.24,-0.788 l 98.068,98.462 c 10.239,9.846 25.599,11.422 37.415,4.726 z"
       style="fill:#cc9357"
       inkscape:connector-curvature="0" /><path
       id="path4976"
       d="m 313.108,367.067 c 4.726,5.12 10.24,9.452 16.148,12.603 -7.483,-12.209 -16.148,-24.025 -27.963,-34.658 1.575,6.695 4.726,12.603 8.665,18.117 -0.001,-0.001 3.15,3.938 3.15,3.938 z m 168.566,105.944 c -7.089,-18.905 -9.058,-33.083 -5.514,-40.566 l -4.726,-4.726 c -4.332,7.483 -5.514,21.268 4.332,47.655 1.969,5.12 4.332,11.028 6.695,16.935 2.363,0 4.726,0 6.695,-0.394 -2.362,-5.907 -4.725,-12.602 -7.482,-18.904 z m 22.055,-4.332 c -0.394,-3.938 -1.969,-7.877 -3.938,-11.422 -3.151,6.695 -3.151,18.117 -0.394,31.114 0,0 0.394,0 0.394,-0.394 2.363,-3.938 3.545,-8.665 3.938,-12.997 l 0,-6.301 z M 299.323,328.076 c 9.058,7.089 17.723,15.36 23.631,23.237 8.271,11.028 14.572,22.055 20.874,33.477 2.363,0.394 5.12,0.788 7.877,0.788 -7.089,-12.997 -14.178,-25.6 -23.237,-38.203 -7.089,-9.452 -17.723,-18.905 -27.963,-26.782 -0.788,2.363 -0.788,4.726 -1.182,7.483 z m 139.028,66.166 -11.028,-11.028 2.757,7.089 c 12.603,33.083 25.994,66.954 39.778,97.674 2.757,1.575 5.514,2.757 8.271,3.151 -15.754,-34.264 -29.538,-69.71 -39.778,-96.886 z m -48.049,-78.769 -6.302,0 c 3.545,2.363 6.695,5.12 9.846,7.877 -0.788,-2.757 -1.969,-5.514 -3.544,-7.877 z M 435.2,434.808 c -1.575,-3.938 -2.757,-8.271 -4.332,-12.603 -6.695,-19.692 -14.966,-43.717 -30.326,-66.166 l -3.545,-3.545 0,-1.182 c -10.24,-13.391 -23.237,-25.994 -40.172,-36.234 l -14.178,0 c 53.169,24.812 70.105,74.437 81.92,109.095 1.575,4.726 3.151,8.665 4.332,12.997 1.969,5.908 5.514,13.391 9.452,21.662 l 14.178,14.178 C 445.046,458.439 438.351,444.655 435.2,434.808 l 0,0 z M 361.157,338.71 c -11.028,-4.726 -16.935,-5.514 -20.086,-1.575 -5.12,5.908 1.182,18.117 18.511,44.898 l 1.969,3.151 3.151,-0.394 11.422,11.422 -11.422,-17.723 c -5.908,-9.058 -21.268,-33.477 -18.905,-37.415 0,0 1.969,-1.182 12.603,3.545 18.511,8.271 26.388,27.963 37.809,57.502 2.757,7.483 5.908,15.36 9.452,23.631 l 12.209,12.209 c -6.302,-14.178 -11.422,-26.782 -15.754,-38.203 -11.421,-29.934 -20.085,-51.596 -40.959,-61.048 z"
       style="fill:#d49d5e"
       inkscape:connector-curvature="0" /><path
       id="path4978"
       d="m 204.8,39.387 c 91.372,0 165.415,74.043 165.415,165.415 0,91.372 -74.043,165.416 -165.415,165.416 -91.372,0 -165.415,-74.044 -165.415,-165.416 0,-91.372 74.043,-165.415 165.415,-165.415 z"
       style="opacity:0.47999998;fill:#b4e7f8"
       inkscape:connector-curvature="0" /><path
       id="path4980"
       d="m 204.8,39.387 c -49.625,0 -94.129,22.055 -124.455,56.714 29.145,-25.6 66.954,-40.96 108.702,-40.96 91.372,0 165.415,74.043 165.415,165.415 0,41.748 -15.36,79.557 -40.96,108.702 34.658,-30.326 56.714,-74.831 56.714,-124.455 C 370.215,113.43 296.172,39.387 204.8,39.387 Z"
       style="fill:#a6d5e5"
       inkscape:connector-curvature="0" /><path
       id="path4982"
       d="M 204.8,0.002 C 91.766,0.002 0,91.768 0,204.802 c 0,113.034 91.766,204.8 204.8,204.8 113.034,0 204.8,-91.766 204.8,-204.8 0,-113.034 -91.766,-204.8 -204.8,-204.8 z m 0,366.277 c -89.009,0 -161.477,-72.468 -161.477,-161.477 0,-89.009 72.468,-161.477 161.477,-161.477 89.009,0 161.477,72.468 161.477,161.477 0,89.009 -72.468,161.477 -161.477,161.477 z m 0,-366.277 C 91.766,0.002 0,91.768 0,204.802 c 0,113.034 91.766,204.8 204.8,204.8 113.034,0 204.8,-91.766 204.8,-204.8 0,-113.034 -91.766,-204.8 -204.8,-204.8 z m 0,366.277 c -89.009,0 -161.477,-72.468 -161.477,-161.477 0,-89.009 72.468,-161.477 161.477,-161.477 89.009,0 161.477,72.468 161.477,161.477 0,89.009 -72.468,161.477 -161.477,161.477 z"
       style="fill:#3c5663"
       inkscape:connector-curvature="0" /><g
       id="g4984" /><g
       id="g4986" /><g
       id="g4988" /><g
       id="g4990" /><g
       id="g4992" /><g
       id="g4994" /><g
       id="g4996" /><g
       id="g4998" /><g
       id="g5000" /><g
       id="g5002" /><g
       id="g5004" /><g
       id="g5006" /><g
       id="g5008" /><g
       id="g5010" /><g
       id="g5012" /></g></svg>