<?xml version="1.0" encoding="UTF-8" standalone="no"?>
<!-- Generator: Adobe Illustrator 19.0.0, SVG Export Plug-In . SVG Version: 6.00 Build 0)  -->

<svg
   xmlns:dc="http://purl.org/dc/elements/1.1/"
   xmlns:cc="http://creativecommons.org/ns#"
   xmlns:rdf="http://www.w3.org/1999/02/22-rdf-syntax-ns#"
   xmlns:svg="http://www.w3.org/2000/svg"
   xmlns="http://www.w3.org/2000/svg"
   xmlns:sodipodi="http://sodipodi.sourceforge.net/DTD/sodipodi-0.dtd"
   xmlns:inkscape="http://www.inkscape.org/namespaces/inkscape"
   version="1.1"
   id="Layer_1"
   x="0px"
   y="0px"
   viewBox="0 0 152 152"
   xml:space="preserve"
   inkscape:version="0.91 r13725"
   sodipodi:docname="link.svg"
   width="152"
   height="152"><metadata
     id="metadata57"><rdf:RDF><cc:Work
         rdf:about=""><dc:format>image/svg+xml</dc:format><dc:type
           rdf:resource="http://purl.org/dc/dcmitype/StillImage" /><dc:title></dc:title></cc:Work></rdf:RDF></metadata><defs
     id="defs55" /><sodipodi:namedview
     pagecolor="#ffffff"
     bordercolor="#666666"
     borderopacity="1"
     objecttolerance="10"
     gridtolerance="10"
     guidetolerance="10"
     inkscape:pageopacity="0"
     inkscape:pageshadow="2"
     inkscape:window-width="1198"
     inkscape:window-height="740"
     id="namedview53"
     showgrid="false"
     fit-margin-top="0"
     fit-margin-left="0"
     fit-margin-right="0"
     fit-margin-bottom="0"
     inkscape:zoom="1.84375"
     inkscape:cx="-22.710476"
     inkscape:cy="24.236905"
     inkscape:window-x="0"
     inkscape:window-y="0"
     inkscape:window-maximized="0"
     inkscape:current-layer="Layer_1" /><polygon
     style="fill:#ffffff"
     points="136.835,412.875 335.946,412.875 335.946,194.37 270.007,128.431 136.835,128.431 "
     id="polygon13"
     transform="translate(-158.482,-227.882)" /><path
     style="fill:#324a5e"
     d="M 146.142,108.662 111.736,74.254998 c -7.833,-7.833 -20.299,-8.256 -28.643,-1.284 l -4.063,-4.063 c 3.194,-3.815 4.939,-8.578 4.939,-13.614 0,-5.679 -2.212,-11.017 -6.225,-15.031 L 43.337,5.8559978 c -4.015,-4.015 -9.354,-6.227 -15.032,-6.227 -5.678,0 -11.017,2.212 -15.031,6.227 L 6.227,12.901998 c -4.015,4.015 -6.227,9.354 -6.227,15.032 0,5.679 2.21,11.018 6.225,15.032 l 34.407,34.407 c 4.015,4.015 9.354,6.227 15.032,6.227 5.036,0 9.799,-1.746 13.614,-4.941 l 4.063,4.063 c -6.97,8.342 -6.549,20.811002 1.283,28.643002 l 34.406,34.407 c 4.017,4.015 9.354,6.227 15.032,6.227 5.678,0 11.017,-2.212 15.032,-6.227 l 7.047,-7.047 c 4.015,-4.015 6.227,-9.354 6.227,-15.032 0,-5.678 -2.211,-11.017 -6.226,-15.031 z M 55.665,69.808998 c -1.995,0 -3.87,-0.776 -5.28,-2.188 l -34.407,-34.407 c -1.41,-1.41 -2.188,-3.286 -2.188,-5.28 0,-1.995 0.776,-3.868 2.186,-5.28 l 7.049,-7.047 c 1.41,-1.41 3.286,-2.188 5.28,-2.188 1.994,0 3.87,0.776 5.28,2.188 l 34.407,34.409 c 1.41,1.408 2.186,3.282 2.186,5.279 0,1.336 -0.378,2.607 -1.031,3.732 l -3.219,-3.219 -9.752,9.75 3.219,3.219 c -1.123,0.654 -2.394,1.032 -3.73,1.032 z m 80.725,59.164002 -7.047,7.047 c -1.41,1.41 -3.286,2.188 -5.28,2.188 -1.995,0 -3.87,-0.776 -5.28,-2.188 L 84.377,101.613 C 81.936,99.169998 81.57,95.458998 83.222,92.601998 l 2.801,2.801 9.752,-9.75 -2.803,-2.803 c 2.855,-1.651 6.57,-1.284 9.011,1.155 L 136.39,118.414 c 1.41,1.408 2.188,3.284 2.188,5.279 0,1.995 -0.777,3.87 -2.188,5.28 z"
     id="path19"
     inkscape:connector-curvature="0" /><path
     style="fill:#2b3b4e"
     d="M 146.142,108.662 111.736,74.254998 c -7.833,-7.833 -20.299,-8.256 -28.643,-1.284 l -4.063,-4.063 c 3.194,-3.815 4.939,-8.578 4.939,-13.614 0,-5.679 -2.212,-11.017 -6.225,-15.031 l -10.107,-10.107 0,19.504 0.355,0.355 c 1.41,1.408 2.186,3.282 2.186,5.279 0,1.336 -0.378,2.607 -1.031,3.732 l -1.51,-1.51 0,22.38 c 0.562,-0.386 1.112,-0.793 1.641,-1.236 l 4.063,4.063 c -6.97,8.342 -6.549,20.811002 1.283,28.643002 l 34.406,34.407 c 4.017,4.015 9.354,6.227 15.032,6.227 5.678,0 11.018,-2.212 15.032,-6.227 l 7.047,-7.047 c 4.015,-4.015 6.227,-9.354 6.227,-15.032 0,-5.678 -2.211,-11.018 -6.226,-15.032 z m -9.752,20.311 -7.047,7.047 c -1.41,1.41 -3.286,2.188 -5.28,2.188 -1.995,0 -3.87,-0.776 -5.28,-2.188 L 84.377,101.613 C 81.936,99.169998 81.57,95.458998 83.222,92.601998 l 2.801,2.801 9.752,-9.75 -2.803,-2.803 c 2.855,-1.651 6.57,-1.284 9.011,1.155 L 136.39,118.414 c 1.41,1.408 2.188,3.284 2.188,5.279 0,1.995 -0.777,3.87 -2.188,5.28 z"
     id="path21"
     inkscape:connector-curvature="0" /><g
     id="g23"
     transform="translate(-158.482,-227.882)" /><g
     id="g25"
     transform="translate(-158.482,-227.882)" /><g
     id="g27"
     transform="translate(-158.482,-227.882)" /><g
     id="g29"
     transform="translate(-158.482,-227.882)" /><g
     id="g31"
     transform="translate(-158.482,-227.882)" /><g
     id="g33"
     transform="translate(-158.482,-227.882)" /><g
     id="g35"
     transform="translate(-158.482,-227.882)" /><g
     id="g37"
     transform="translate(-158.482,-227.882)" /><g
     id="g39"
     transform="translate(-158.482,-227.882)" /><g
     id="g41"
     transform="translate(-158.482,-227.882)" /><g
     id="g43"
     transform="translate(-158.482,-227.882)" /><g
     id="g45"
     transform="translate(-158.482,-227.882)" /><g
     id="g47"
     transform="translate(-158.482,-227.882)" /><g
     id="g49"
     transform="translate(-158.482,-227.882)" /><g
     id="g51"
     transform="translate(-158.482,-227.882)" /></svg>