<?xml version="1.0" encoding="UTF-8" standalone="no"?>
<!-- Generator: Adobe Illustrator 19.0.0, SVG Export Plug-In . SVG Version: 6.00 Build 0)  -->

<svg
   xmlns:dc="http://purl.org/dc/elements/1.1/"
   xmlns:cc="http://creativecommons.org/ns#"
   xmlns:rdf="http://www.w3.org/1999/02/22-rdf-syntax-ns#"
   xmlns:svg="http://www.w3.org/2000/svg"
   xmlns="http://www.w3.org/2000/svg"
   xmlns:sodipodi="http://sodipodi.sourceforge.net/DTD/sodipodi-0.dtd"
   xmlns:inkscape="http://www.inkscape.org/namespaces/inkscape"
   version="1.1"
   id="Layer_1"
   x="0px"
   y="0px"
   viewBox="0 0 503.118 503.118"
   style="enable-background:new 0 0 503.118 503.118;"
   xml:space="preserve"
   inkscape:version="0.91 r13725"
   sodipodi:docname="link.svg"><metadata
     id="metadata41"><rdf:RDF><cc:Work
         rdf:about=""><dc:format>image/svg+xml</dc:format><dc:type
           rdf:resource="http://purl.org/dc/dcmitype/StillImage" /></cc:Work></rdf:RDF></metadata><defs
     id="defs39" /><sodipodi:namedview
     pagecolor="#ffffff"
     bordercolor="#666666"
     borderopacity="1"
     objecttolerance="10"
     gridtolerance="10"
     guidetolerance="10"
     inkscape:pageopacity="0"
     inkscape:pageshadow="2"
     inkscape:window-width="700"
     inkscape:window-height="480"
     id="namedview37"
     showgrid="false"
     inkscape:zoom="0.46907484"
     inkscape:cx="251.55901"
     inkscape:cy="251.55901"
     inkscape:window-x="0"
     inkscape:window-y="0"
     inkscape:window-maximized="0"
     inkscape:current-layer="Layer_1" /><path
     style="fill:#e046ba;fill-opacity:1"
     d="M335.151,167.967c10.449,10.449,18.808,22.988,25.078,35.527  c22.988,48.065,15.673,108.669-25.078,148.375L223.347,464.718c-51.2,51.2-133.747,51.2-183.902,0  c-51.2-51.2-51.2-133.747,0-183.902l79.412-79.412c-9.404,31.347-8.359,64.784,3.135,95.086l-33.437,33.437  c-22.988,22.988-22.988,61.649,0,85.682c24.033,24.033,61.649,24.033,85.682,0l111.804-111.804  c11.494-11.494,17.763-27.167,17.763-42.841s-6.269-31.347-17.763-42.841c-11.494-11.494-27.167-17.763-42.841-17.763l56.424-56.424  C312.163,149.159,323.657,157.518,335.151,167.967z"
     id="path3" /><path
     style="fill:#e046ba;fill-opacity:1"
     d="M167.967,335.151c-10.449-10.449-18.808-22.988-25.078-35.527  c-22.988-48.065-15.673-108.669,25.078-148.376L279.771,38.4c51.2-51.2,133.747-51.2,183.902,0c51.2,51.2,51.2,133.747,0,183.902  l-79.412,79.412c9.404-31.347,8.359-64.784-3.135-95.086l33.437-33.437c22.988-22.988,22.988-61.649,0-85.682  c-24.033-24.033-61.649-24.033-85.682,0L218.122,200.359c-11.494,11.494-17.763,27.167-17.763,42.841s6.269,31.347,17.763,42.841  c11.494,11.494,27.167,17.763,42.841,17.763l-56.424,56.424C190.955,353.959,179.461,345.6,167.967,335.151z"
     id="path5" /><g
     id="g7" /><g
     id="g9" /><g
     id="g11" /><g
     id="g13" /><g
     id="g15" /><g
     id="g17" /><g
     id="g19" /><g
     id="g21" /><g
     id="g23" /><g
     id="g25" /><g
     id="g27" /><g
     id="g29" /><g
     id="g31" /><g
     id="g33" /><g
     id="g35" /></svg>